<svg width="16" height="17" viewBox="0 0 16 17" fill="none" xmlns="http://www.w3.org/2000/svg">
<path d="M11.9477 5.05249L10.0911 3.2236L10.0907 3.2232C9.94544 3.079 9.86345 2.88302 9.86272 2.67836C9.862 2.47371 9.94261 2.27715 10.0868 2.13193C10.231 1.98671 10.427 1.90472 10.6316 1.90399C10.8363 1.90327 11.0328 1.98387 11.1781 2.12806C11.1781 2.12806 11.1781 2.12807 11.1781 2.12807L14.3633 5.27558C14.3634 5.27563 14.3635 5.27569 14.3635 5.27575C14.4363 5.34715 14.4942 5.43227 14.5339 5.5262C14.5736 5.6202 14.5943 5.72115 14.5947 5.8232L14.5947 5.82581C14.5919 6.02548 14.5117 6.21625 14.371 6.35801L14.3701 6.359L11.1843 9.50696C11.1843 9.50699 11.1843 9.50702 11.1842 9.50705L11.1841 9.50715L11.0846 9.40638C10.9673 9.5227 10.809 9.58828 10.6438 9.58897L11.9477 5.05249ZM11.9477 5.05249H5.909C4.786 5.05249 3.709 5.4986 2.91493 6.29268C2.12085 7.08675 1.67474 8.16375 1.67474 9.28675C1.67474 10.4097 2.12085 11.4867 2.91493 12.2808C3.709 13.0749 4.786 13.521 5.909 13.521H7.48937C7.69393 13.521 7.89011 13.4397 8.03476 13.2951C8.1794 13.1505 8.26067 12.9543 8.26067 12.7497C8.26067 12.5452 8.1794 12.349 8.03476 12.2043C7.89011 12.0597 7.69393 11.9784 7.48937 11.9784H5.909C5.19512 11.9784 4.51049 11.6948 4.0057 11.19C3.50092 10.6853 3.21733 10.0006 3.21733 9.28675C3.21733 8.57288 3.50092 7.88824 4.0057 7.38345C4.51049 6.87867 5.19512 6.59508 5.909 6.59508H11.9414L11.9477 5.05249ZM10.096 9.49961C10.0961 9.49972 10.0962 9.49984 10.0963 9.49996L10.1968 9.40008L10.0956 9.49925C10.0957 9.49937 10.0958 9.49949 10.096 9.49961Z" fill="white" stroke="white" stroke-width="0.283333"/>
</svg>
